<?xml version="1.0" encoding="UTF-8"?><svg id="prim-blue-logo" xmlns="http://www.w3.org/2000/svg" width="712" height="171.87" viewBox="0 0 712 171.87"><defs><style>.cls-1{fill:#ede9de;}</style></defs><g id="Layer_1-2"><path class="cls-1" d="M107.93,58.31c3.01,9.04,3,19.57-.07,28.65-.6-2.68-1.12-5.41-2.44-7.81-3.05-5.53-6.76-8.78-10.69-14.91-5.26-9.28-6.24-13.52-6.43-22.2,0-6.24,1.21-12.34,3.52-18.04-17.75,2.78-34.1,14.59-40.77,31.65h0c-3.47,8.6-4.18,19.01-1.83,28.11-4.72-5.8-8.09-12.6-9.67-20.01-31.92,29.99-11.28,79.02,30.95,83.7,30.5,3.78,59.99-18.35,59.94-48.89.04-16.44-8.87-31.35-22.51-40.26ZM73.87,141.97c-21.12-2.34-31.43-26.85-15.47-41.85.79,3.7,2.48,7.1,4.83,10-1.18-4.55-.82-9.76.91-14.06h0c3.34-8.53,11.51-14.43,20.39-15.82-1.15,2.85-1.76,5.9-1.76,9.02.1,4.34.59,6.46,3.21,11.1,1.96,3.07,3.82,4.69,5.34,7.46.66,1.2.92,2.56,1.22,3.91,1.53-4.55,1.53-9.8.03-14.33,6.82,4.45,11.28,11.91,11.25,20.13.02,15.27-14.72,26.34-29.97,24.44h0Z"/><path class="cls-1" d="M241.6,103.16c0,13.06-10.62,23.69-23.69,23.69h-50.66V52.5h46.84c11.04,0,20.07,9.03,20.07,20.07,0,4.04-1.17,7.75-3.19,10.83,6.37,4.25,10.62,11.47,10.62,19.76h0ZM180.53,79.38h33.67c3.72,0,6.8-3.08,6.8-6.8s-3.08-6.8-6.8-6.8h-33.67v13.6h0ZM217.92,113.47c5.73,0,10.41-4.67,10.41-10.41s-4.67-10.41-10.41-10.41h-37.38v20.92h37.38v-.11h0Z"/><path class="cls-1" d="M256.37,126.85V52.5h13.28v74.35h-13.28Z"/><path class="cls-1" d="M361.3,52.61v13.28h-30.48v61.07h-13.28v-61.07h-30.48v-13.28h74.24Z"/><path class="cls-1" d="M429.49,126.85h-14.87l-6.8-13.28-16.25-31.86-16.25,31.86-6.8,13.28h-14.87l6.8-13.28,31.12-61.07,31.12,61.07,6.8,13.28Z"/><path class="cls-1" d="M493.85,73.11v-.42c0-3.72-3.08-6.8-6.8-6.8h-30.16c-3.72,0-6.8,3.08-6.8,6.8v.42c0,3.72,3.08,6.8,6.8,6.8h26.76c6.9,0,13.06,2.97,17.31,7.65.32.32.53.64.85.95,3.29,4.04,5.31,9.24,5.31,14.87,0,12.96-10.51,23.47-23.47,23.47h-23.26c-12.96,0-23.47-10.51-23.47-23.47h13.28c0,5.63,4.57,10.2,10.2,10.2h23.26c5.63,0,10.3-4.57,10.3-10.2s-4.67-10.2-10.3-10.2h-26.76c-5.42,0-10.3-2.12-13.92-5.63-.95-.95-1.8-2.02-2.55-3.19-2.23-3.19-3.51-7.11-3.51-11.36v-.42c0-11.04,8.92-20.07,19.97-20.07h30.16c11.04,0,20.07,9.03,20.07,20.07v.42l-13.28.11h0Z"/><path class="cls-1" d="M598.89,52.5v74.35h-13.28v-34.1h-47.79v34.1h-13.28V52.5h13.28v26.98h47.79v-26.98h13.28Z"/><path class="cls-1" d="M688,126.85h-14.87l-6.8-13.28-16.25-31.86-16.25,31.86-6.8,13.28h-14.87l6.8-13.28,31.12-61.07,31.12,61.07,6.8,13.28h0Z"/></g></svg>