<?xml version="1.0" encoding="UTF-8"?><svg id="dark-blue-trans" xmlns="http://www.w3.org/2000/svg" width="1080" height="1080" viewBox="0 0 1080 1080"><defs><style>.cls-1{fill:#1b2632;}</style></defs><path class="cls-1" d="M673.73,419.55c13.1,39.43,13.05,85.3-.28,124.92-2.62-11.69-4.88-23.6-10.64-34.04-13.29-24.12-29.45-38.27-46.56-65.01-22.91-40.44-27.16-58.94-27.99-96.78,0-27.19,5.26-53.79,15.31-78.64-77.28,12.12-148.47,63.59-177.54,137.95-15.1,37.49-18.22,82.89-7.95,122.55-20.55-25.3-35.23-54.95-42.12-87.21-139.01,130.75-49.13,344.48,134.76,364.87,132.83,16.49,261.24-79.98,261.03-213.12.16-71.67-38.6-136.68-98.02-175.49ZM525.4,784.26c-91.96-10.18-136.88-117.05-67.37-182.44,3.45,16.13,10.78,30.95,21.05,43.61-5.12-19.84-3.59-42.54,3.96-61.28,14.54-37.18,50.12-62.91,88.77-68.98-5.03,12.42-7.67,25.73-7.65,39.31.42,18.92,2.55,28.18,13.99,48.4,8.54,13.37,16.64,20.43,23.27,32.51,2.88,5.22,4.01,11.17,5.31,17.03,6.65-19.82,6.68-42.73.14-62.46,29.71,19.39,49.1,51.9,49.01,87.73.09,66.57-64.11,114.8-130.51,106.56h.02Z"/></svg>